<svg xmlns="http://www.w3.org/2000/svg" width="18.158" height="15.006" viewBox="0 0 18.158 15.006">
  <g id="Group_24021" data-name="Group 24021" transform="translate(0.5 1.5)">
    <path id="Rectangle_3776" data-name="Rectangle 3776" d="M2,0h9.715a2,2,0,0,1,2,2V3.5a0,0,0,0,1,0,0H0a0,0,0,0,1,0,0V2A2,2,0,0,1,2,0Z" transform="translate(0.213 2.347)" fill="#005bab" stroke="#005bab" stroke-width="1"/>
    <g id="Group_24019" data-name="Group 24019" transform="translate(0 2.059)">
      <path id="Path_17584" data-name="Path 17584" d="M881.75,469.507a.953.953,0,0,1,.892,1v8.807a1.049,1.049,0,0,1-.934,1.136H869.569a1.048,1.048,0,0,1-.934-1.136v-8.807a.953.953,0,0,1,.891-1Z" transform="translate(-868.635 -469.507)" fill="none" stroke="#005bab" stroke-linecap="round" stroke-linejoin="round" stroke-width="1"/>
    </g>
    <g id="Group_24020" data-name="Group 24020" transform="translate(4.043 -1)">
      <path id="Path_17585" data-name="Path 17585" d="M873.85,465.979h12.224a.953.953,0,0,1,.891,1v8.807" transform="translate(-873.85 -465.979)" fill="none" stroke="#005bab" stroke-linecap="round" stroke-linejoin="round" stroke-width="1"/>
    </g>
  </g>
</svg>
