<svg xmlns="http://www.w3.org/2000/svg" width="16" height="10" viewBox="0 0 16 10"><g transform="translate(-256 -272)"><path d="M271.141,272.028,271,272H257l-.086.018L264,278.332Z" fill="#005bab"/><path d="M271.932,272.665l-5.041,4.45,4.976,4.355A.968.968,0,0,0,272,281v-8A.957.957,0,0,0,271.932,272.665Z" fill="#005bab"/><path d="M256.078,272.613A1.016,1.016,0,0,0,256,273v8a.975.975,0,0,0,.092.407l5.023-4.307Z" fill="#005bab"/><path d="M264,279.668l-2.129-1.9-4.922,4.218L257,282h13.955l-4.82-4.218Z" fill="#005bab"/></g></svg>