<svg xmlns="http://www.w3.org/2000/svg" width="11.793" height="13" viewBox="0 0 11.793 13">
  <g id="Group_22925" data-name="Group 22925" transform="translate(-86.623 -577.979)">
    <g id="Group_22924" data-name="Group 22924" transform="translate(91.804 578.479)">
      <path id="Path_17398" data-name="Path 17398" d="M97.662,584.612a.232.232,0,0,1-.2-.1.317.317,0,0,1,0-.309l.559-1.384a2.329,2.329,0,0,1,.439-.661l3.534-3.534a.505.505,0,0,1,.714,0l.681.681a.5.5,0,0,1,0,.714l-3.533,3.534A2.446,2.446,0,0,1,99.2,584l-1.361.575A.447.447,0,0,1,97.662,584.612Z" transform="translate(-97.424 -578.479)" fill="none" stroke="#fff" stroke-linecap="round" stroke-linejoin="round" stroke-width="1"/>
    </g>
    <path id="Path_17399" data-name="Path 17399" d="M96.211,584.3v6.943H87.123V579.886H93.36" transform="translate(0 -0.767)" fill="none" stroke="#fff" stroke-linecap="round" stroke-linejoin="round" stroke-width="1"/>
  </g>
</svg>
