<svg xmlns="http://www.w3.org/2000/svg" width="17.211" height="17" viewBox="0 0 17.211 17"><g transform="translate(-219.035 -446.58)"><line x2="10.513" transform="translate(225.232 448.909)" fill="none" stroke="#005bab" stroke-linecap="round" stroke-linejoin="round" stroke-width="1"/><path d="M223.337,458.166a1.829,1.829,0,1,1-1.829-1.828A1.829,1.829,0,0,1,223.337,458.166Z" transform="translate(-0.048 -3.086)" fill="none" stroke="#005bab" stroke-linecap="round" stroke-linejoin="round" stroke-width="1"/><line x1="10.513" transform="translate(225.232 455.08)" fill="none" stroke="#005bab" stroke-linecap="round" stroke-linejoin="round" stroke-width="1"/><path d="M219.643,448.909a1.829,1.829,0,1,1,1.829,1.828A1.829,1.829,0,0,1,219.643,448.909Z" transform="translate(-0.036)" fill="none" stroke="#005bab" stroke-linecap="round" stroke-linejoin="round" stroke-width="1"/><path d="M219.535,467.423a1.829,1.829,0,1,0,1.829-1.828A1.829,1.829,0,0,0,219.535,467.423Z" transform="translate(0 -6.172)" fill="none" stroke="#005bab" stroke-linecap="round" stroke-linejoin="round" stroke-width="1"/><line x2="10.513" transform="translate(225.232 461.251)" fill="none" stroke="#005bab" stroke-linecap="round" stroke-linejoin="round" stroke-width="1"/></g></svg>