<svg xmlns="http://www.w3.org/2000/svg" width="14.876" height="17" viewBox="0 0 14.876 17"><g transform="translate(-351.363 -380.165)"><path d="M364.914,385.174l-.771,11.761a1.227,1.227,0,0,1-1.213,1.233h-6.614a1.225,1.225,0,0,1-1.211-1.233l-.771-11.761" transform="translate(-0.824 -1.503)" fill="#005bab" stroke="#0059a6" stroke-linecap="round" stroke-linejoin="round" stroke-width="1"/><path d="M357.565,383.582l.066-1.908a.934.934,0,0,1,.824-1.009h4.495a.933.933,0,0,1,.823,1.009l.066,1.908" transform="translate(-1.901 0)" fill="#005bab" stroke="#0059a6" stroke-linecap="round" stroke-linejoin="round" stroke-width="1"/><line x2="13.876" transform="translate(351.863 383.582)" fill="none" stroke="#0059a6" stroke-linecap="round" stroke-linejoin="round" stroke-width="1"/><line x2="0.476" y2="8.08" transform="translate(356.106 386.288)" fill="none" stroke="#fff" stroke-linecap="round" stroke-linejoin="round" stroke-width="1"/><line x2="0.265" y2="5.384" transform="translate(358.416 388.983)" fill="none" stroke="#fff" stroke-linecap="round" stroke-linejoin="round" stroke-width="1"/></g></svg>