<svg xmlns="http://www.w3.org/2000/svg" width="32.153" height="35.808" viewBox="0 0 32.153 35.808"><g transform="translate(0 0)"><path d="M182.89,69.18a7.145,7.145,0,1,0-7.145-7.146A7.146,7.146,0,0,0,182.89,69.18Z" transform="translate(-160.099 -54.89)" fill="#005bab"/><path d="M24.586,131.788a5.327,5.327,0,1,0,5.327,5.327A5.327,5.327,0,0,0,24.586,131.788Z" transform="translate(-17.545 -124.942)" fill="#005bab"/><path d="M0,269.878v4.02a6.146,6.146,0,0,0,6.146,6.146H11.17v-11.6l.049-.229a7.364,7.364,0,0,1,.51-1.5,7.743,7.743,0,0,0-4.747-1.488C2.572,265.225.367,268.165,0,269.878Z" transform="translate(0 -246.5)" fill="#005bab"/><path d="M160.2,233.86c-5.913,0-8.869,3.942-9.362,6.242v10.281a3.353,3.353,0,0,0,3.352,3.352h12.021a3.353,3.353,0,0,0,3.352-3.352V240.1C169.065,237.8,166.109,233.86,160.2,233.86Z" transform="translate(-137.405 -217.927)" fill="#005bab"/></g></svg>