<svg xmlns="http://www.w3.org/2000/svg" width="9.849" height="8.096" viewBox="0 0 9.849 8.096">
  <path id="ここにコメントが入ります" d="M1.177.6A.4.4,0,0,0,1.3.9a.412.412,0,0,0,.3.12h9.009A.412.412,0,0,0,10.9.9a.4.4,0,0,0,.125-.3A.4.4,0,0,0,10.9.308a.408.408,0,0,0-.3-.122H1.6a.408.408,0,0,0-.3.122A.4.4,0,0,0,1.177.6ZM1.6-.908A.4.4,0,0,0,1.711-.6a.437.437,0,0,0,.315.11h.991A.438.438,0,0,0,3.33-.6a.4.4,0,0,0,.117-.305v-3.76a.4.4,0,0,0-.117-.3.433.433,0,0,0-.312-.112H2.026a.431.431,0,0,0-.315.112.4.4,0,0,0-.115.3Zm2.383,0A.4.4,0,0,0,4.1-.6a.438.438,0,0,0,.313.11h1A.438.438,0,0,0,5.718-.6a.4.4,0,0,0,.117-.305V-6.665a.39.39,0,0,0-.117-.3.444.444,0,0,0-.312-.107h-1a.444.444,0,0,0-.312.107.39.39,0,0,0-.117.3Zm2.383,0A.4.4,0,0,0,6.479-.6a.438.438,0,0,0,.313.11h1A.438.438,0,0,0,8.1-.6a.4.4,0,0,0,.117-.305V-5.645A.4.4,0,0,0,8.1-5.952a.444.444,0,0,0-.312-.107h-1a.444.444,0,0,0-.312.107.4.4,0,0,0-.117.308Zm2.388,0A.4.4,0,0,0,8.867-.6a.438.438,0,0,0,.313.11h1a.43.43,0,0,0,.31-.11A.4.4,0,0,0,10.6-.908V-3.716a.4.4,0,0,0-.115-.305.43.43,0,0,0-.31-.11h-1a.438.438,0,0,0-.312.11.4.4,0,0,0-.117.305Z" transform="translate(-1.177 7.075)" fill="#fff"/>
</svg>
