<svg xmlns="http://www.w3.org/2000/svg" width="17" height="17" viewBox="0 0 17 17">
  <g id="Group_23604" data-name="Group 23604" transform="translate(0.5 0.5)">
    <path id="Path_68" data-name="Path 68" d="M702.143,252.6l2.131-.278v-2.133l-2.138-.28a5.969,5.969,0,0,0-.786-1.865l1.3-1.727-1.482-1.471-1.731,1.317a6,6,0,0,0-1.834-.752l-.265-2.156h-2.133l-.281,2.158a5.992,5.992,0,0,0-1.867.775l-1.723-1.31-1.471,1.481,1.321,1.689a5.965,5.965,0,0,0-.786,1.87l-2.126.27v2.133l2.117.263a5.943,5.943,0,0,0,.774,1.871l-1.268,1.737,1.482,1.47,1.713-1.293a5.984,5.984,0,0,0,1.84.757l.275,2.128h2.133l.284-2.133a6,6,0,0,0,1.851-.768l1.737,1.277,1.471-1.481-1.3-1.707A5.935,5.935,0,0,0,702.143,252.6Z" transform="translate(-688.274 -243.255)" fill="none" stroke="#333" stroke-linecap="round" stroke-miterlimit="10" stroke-width="1"/>
    <circle id="Ellipse_11" data-name="Ellipse 11" cx="3" cy="3" r="3" transform="translate(5 5)" fill="none" stroke="#333" stroke-linecap="round" stroke-miterlimit="10" stroke-width="1"/>
  </g>
</svg>
