<svg xmlns="http://www.w3.org/2000/svg" width="39.98" height="19.852" viewBox="0 0 39.98 19.852"><path d="M39.98,140.855a26.066,26.066,0,0,0-5-5.983,24.324,24.324,0,0,0-6.221-4.1,21.336,21.336,0,0,0-17.544,0,25.4,25.4,0,0,0-8.381,6.266A23.886,23.886,0,0,0,0,140.855l2.29,1.287,1.068.605,0,0h0a22.732,22.732,0,0,1,4.411-5.179,20.307,20.307,0,0,1,5.175-3.341,17.484,17.484,0,0,1,14.232.064,21.577,21.577,0,0,1,7.091,5.32,23.268,23.268,0,0,1,1.794,2.272c.2.286.342.513.435.663l.1.165.02.035,0,0,.758-.431-.76.427Z" transform="translate(0 -128.886)" fill="#005bab"/><path d="M176.357,210.339a6.746,6.746,0,1,0,6.746,6.746A6.746,6.746,0,0,0,176.357,210.339Z" transform="translate(-156.367 -203.979)" fill="#005bab"/></svg>