<svg xmlns="http://www.w3.org/2000/svg" width="10.968" height="11" viewBox="0 0 10.968 11">
  <g id="Group_22920" data-name="Group 22920" transform="translate(0.504 0.5)">
    <path id="Path_17396" data-name="Path 17396" d="M86.537,651.185a.377.377,0,0,1-.324-.16.515.515,0,0,1,0-.5l.91-2.256a3.807,3.807,0,0,1,.715-1.078l5.761-5.761a.825.825,0,0,1,1.164,0l1.11,1.11a.821.821,0,0,1,0,1.165l-5.759,5.761a3.984,3.984,0,0,1-1.074.722l-2.22.938A.734.734,0,0,1,86.537,651.185Z" transform="translate(-86.148 -641.185)" fill="none" stroke="#fff" stroke-linecap="round" stroke-linejoin="round" stroke-width="1"/>
  </g>
</svg>
