<svg xmlns="http://www.w3.org/2000/svg" width="21.549" height="21.549" viewBox="0 0 21.549 21.549">
  <path id="Path_17642" data-name="Path 17642" d="M12.7,3.019a10.373,10.373,0,0,0,4.163-.843A10.915,10.915,0,0,0,20.292-.156a11.1,11.1,0,0,0,2.331-3.437,10.316,10.316,0,0,0,.849-4.163,10.316,10.316,0,0,0-.849-4.163,11.1,11.1,0,0,0-2.331-3.437,10.9,10.9,0,0,0-3.437-2.331,10.411,10.411,0,0,0-4.168-.843,10.373,10.373,0,0,0-4.163.843,10.915,10.915,0,0,0-3.432,2.331,11.025,11.025,0,0,0-2.326,3.438,10.373,10.373,0,0,0-.843,4.163,10.373,10.373,0,0,0,.843,4.163A10.98,10.98,0,0,0,5.1-.156,10.98,10.98,0,0,0,8.535,2.175,10.373,10.373,0,0,0,12.7,3.019Zm0-1.386A9.14,9.14,0,0,1,9.045.9a9.485,9.485,0,0,1-2.986-2.02A9.394,9.394,0,0,1,4.044-4.109a9.21,9.21,0,0,1-.725-3.647A9.21,9.21,0,0,1,4.044-11.4a9.5,9.5,0,0,1,2.009-3,9.289,9.289,0,0,1,2.986-2.02,9.21,9.21,0,0,1,3.647-.725,9.2,9.2,0,0,1,3.652.725,9.43,9.43,0,0,1,2.992,2.02,9.488,9.488,0,0,1,2.025,3,9.151,9.151,0,0,1,.73,3.647,9.21,9.21,0,0,1-.725,3.647,9.394,9.394,0,0,1-2.014,2.992,9.452,9.452,0,0,1-3,2.02A9.19,9.19,0,0,1,12.7,1.633Zm5.511-9.389a.689.689,0,0,0-.236-.483l-3.824-3.824a.6.6,0,0,0-.44-.172.58.58,0,0,0-.419.167.565.565,0,0,0-.172.424.626.626,0,0,0,.2.451l1.687,1.676,1.321,1.2L14.352-8.39H7.767a.6.6,0,0,0-.446.183.623.623,0,0,0-.177.451.6.6,0,0,0,.177.446.6.6,0,0,0,.446.177h6.585L16.339-7.2l-1.332,1.2L13.32-4.318a.581.581,0,0,0-.2.451.588.588,0,0,0,.172.424.561.561,0,0,0,.419.177.578.578,0,0,0,.44-.183l3.824-3.835A.656.656,0,0,0,18.208-7.756Z" transform="translate(-1.923 18.53)" fill="#005bab"/>
</svg>
