<svg xmlns="http://www.w3.org/2000/svg" width="13.176" height="21.096" viewBox="0 0 13.176 21.096"><g transform="translate(-223.574 -579.086)"><line x1="5.656" transform="translate(227.386 597.447)" fill="none" stroke="#31362f" stroke-linecap="round" stroke-linejoin="round" stroke-width="1"/><line x1="5.656" transform="translate(227.386 599.682)" fill="none" stroke="#31362f" stroke-linecap="round" stroke-linejoin="round" stroke-width="1"/><path d="M232.647,594.9a.742.742,0,0,0,.725-.6,22.854,22.854,0,0,1,2.089-5.652,7.233,7.233,0,0,0,.769-2.718,5.909,5.909,0,0,0-3.61-5.753,6.026,6.026,0,0,0-6.728,1.357,5.853,5.853,0,0,0-1.108,6.7,24.063,24.063,0,0,1,2.36,6.063.743.743,0,0,0,.724.613Z" fill="none" stroke="#31362f" stroke-linecap="round" stroke-linejoin="round" stroke-width="1"/></g></svg>