<svg xmlns="http://www.w3.org/2000/svg" xmlns:xlink="http://www.w3.org/1999/xlink" width="18" height="20" viewBox="0 0 18 20">
  <defs>
    <clipPath id="clip-path">
      <rect id="Rectangle_1075" data-name="Rectangle 1075" width="18" height="20" transform="translate(5643 -932)" fill="#fff" stroke="#707070" stroke-width="1"/>
    </clipPath>
  </defs>
  <g id="Group_24583" data-name="Group 24583" transform="translate(-5643 932)">
    <g id="Group_24582" data-name="Group 24582">
      <g id="Group_24581" data-name="Group 24581">
        <g id="Mask_Group_1" data-name="Mask Group 1" clip-path="url(#clip-path)">
          <g id="pdf-svgrepo-com" transform="translate(5644.95 -932)">
            <path id="Path_17408" data-name="Path 17408" d="M13.267,0H2.166V20h14.1V3.333Z" transform="translate(-2.166)" fill="#e8e8e8"/>
            <path id="Path_17409" data-name="Path 17409" d="M14.188,9.891c-.216-.428-.964-.563-1.306-.623a4.687,4.687,0,0,0-.819-.062c-.215,0-.426.01-.635.023-.077.006-.153.013-.229.02-.078-.09-.153-.182-.226-.277A9.419,9.419,0,0,1,9.827,6.949a8.784,8.784,0,0,0,.185-1.087,5.025,5.025,0,0,0-.136-2.127c-.08-.226-.294-.5-.54-.365-.283.158-.363.6-.386.922a3.413,3.413,0,0,0,.033.765,5.958,5.958,0,0,0,.172.735q.1.331.213.656c-.049.171-.1.338-.156.5-.128.372-.266.726-.4,1.066l-.206.5c-.212.518-.443,1.027-.7,1.519a7.348,7.348,0,0,0-1.594.833,3.586,3.586,0,0,0-.632.568,1.281,1.281,0,0,0-.353.727.481.481,0,0,0,.164.4.629.629,0,0,0,.558.081,3.091,3.091,0,0,0,1.474-1.213,13.233,13.233,0,0,0,.912-1.284l0,0a12.665,12.665,0,0,1,1.815-.475c.3-.054.6-.1.908-.13a4.363,4.363,0,0,0,.709.6,3.127,3.127,0,0,0,.634.338,4.177,4.177,0,0,0,.684.19,1.816,1.816,0,0,0,.362.022c.275-.012.67-.129.7-.5A.565.565,0,0,0,14.188,9.891Zm-6.582.68c-.129.222-.253.421-.37.6a2.8,2.8,0,0,1-1.088,1.14.767.767,0,0,1-.333.066c-.111-.007-.221-.062-.216-.2a.637.637,0,0,1,.084-.259,1.592,1.592,0,0,1,.194-.279,3.32,3.32,0,0,1,.58-.522,6.631,6.631,0,0,1,1.227-.679ZM9.222,5.012A2.794,2.794,0,0,1,9.2,4.32a1.8,1.8,0,0,1,.062-.327c.025-.088.08-.3.168-.329.144-.045.189.3.2.4a4.831,4.831,0,0,1-.1,1.713c-.018.086-.038.171-.058.256-.035-.106-.068-.212-.1-.318A5.689,5.689,0,0,1,9.222,5.012Zm.99,4.372a12.846,12.846,0,0,0-1.542.377,4.5,4.5,0,0,0,.385-.7,9,9,0,0,0,.674-1.728,8.562,8.562,0,0,0,1.078,1.8q.06.074.122.146C10.686,9.307,10.447,9.343,10.213,9.385Zm3.666.771c-.02.119-.249.187-.356.206a1.845,1.845,0,0,1-.952-.1,2.92,2.92,0,0,1-.6-.309,3.6,3.6,0,0,1-.531-.44c.2-.014.41-.022.617-.018a4.7,4.7,0,0,1,.622.044,2.073,2.073,0,0,1,1.124.474A.167.167,0,0,1,13.878,10.156Z" transform="translate(-2.483)" fill="#fb3449"/>
            <path id="Path_17410" data-name="Path 17410" d="M13.731,1.666H2.166V0h11.1Z" transform="translate(-2.166)" fill="#fb3449"/>
            <g id="Group_24580" data-name="Group 24580" transform="translate(3.513 14.901)">
              <path id="Path_17411" data-name="Path 17411" d="M8.137,15.908a1.125,1.125,0,0,1-.282.819,1.066,1.066,0,0,1-.8.289H6.84v1.05H6.07V14.9h.986a1.124,1.124,0,0,1,.811.262A.988.988,0,0,1,8.137,15.908Zm-1.3.411h.14a.361.361,0,0,0,.276-.108.417.417,0,0,0,.1-.3.283.283,0,0,0-.32-.32h-.2S6.84,16.319,6.84,16.319Z" transform="translate(-6.07 -14.901)" fill="#a4a9ad"/>
              <path id="Path_17412" data-name="Path 17412" d="M11.29,16.416a1.744,1.744,0,0,1-.393,1.221,1.421,1.421,0,0,1-1.1.429H8.872V14.9h.986a1.4,1.4,0,0,1,1.059.39A1.565,1.565,0,0,1,11.29,16.416Zm-.8.03a1.089,1.089,0,0,0-.155-.645.547.547,0,0,0-.471-.21H9.641v1.773h.171a.592.592,0,0,0,.514-.226A1.184,1.184,0,0,0,10.491,16.447Z" transform="translate(-6.35 -14.901)" fill="#a4a9ad"/>
              <path id="Path_17413" data-name="Path 17413" d="M12.883,18.066h-.758V14.9h1.683v.686h-.926v.6h.853v.686h-.853v1.189Z" transform="translate(-6.676 -14.901)" fill="#a4a9ad"/>
            </g>
            <path id="Path_17414" data-name="Path 17414" d="M14.5,3.333h3L14.5,0Z" transform="translate(-3.4)" fill="#d1d3d3"/>
          </g>
        </g>
      </g>
    </g>
  </g>
</svg>
