<svg xmlns="http://www.w3.org/2000/svg" xmlns:xlink="http://www.w3.org/1999/xlink" width="144.396" height="30" viewBox="0 0 144.396 30"><defs><linearGradient id="a" x1="0.5" y1="-0.111" x2="0.5" y2="0.837" gradientUnits="objectBoundingBox"><stop offset="0" stop-color="#005bab"/><stop offset="1" stop-color="#18915a"/></linearGradient><linearGradient id="b" x1="0.5" y1="-0.379" x2="0.5" y2="2.571" xlink:href="#a"/><linearGradient id="c" x1="0.5" y1="-1.184" x2="0.5" y2="0.68" xlink:href="#a"/></defs><g transform="translate(-107.065 -332.217)"><g transform="translate(107.065 332.217)"><path d="M128.017,341.906l2-1.995a5.128,5.128,0,0,1,6.828-.491,4.984,4.984,0,0,1,.369,7.376l-1.8,1.8a.5.5,0,0,0,0,.7l3.6,3.6a.5.5,0,0,0,.7,0l1.572-1.571a11.278,11.278,0,0,0,.949-15.083,11.075,11.075,0,0,0-16.363-.792h0l-2.749,2.746-6.083,6.074-9.824,9.817a.5.5,0,0,0,.351.848h7.2a.5.5,0,0,0,.351-.145l1.926-1.922v8.851a.5.5,0,0,0,.5.5h5.09a.5.5,0,0,0,.5-.5V346.794l4.9-4.89Z" transform="translate(-107.065 -332.217)" fill="url(#a)"/><path d="M122.6,332.533h-5.09a.5.5,0,0,0-.5.5v9.151l6.083-6.074v-3.077A.5.5,0,0,0,122.6,332.533Z" transform="translate(-107.047 -332.217)" fill="url(#b)"/><path d="M129.44,347.069l-3.6,3.6a.5.5,0,0,0,0,.7l10.673,10.674a.5.5,0,0,0,.352.145h7.2a.5.5,0,0,0,.351-.848l-14.273-14.273A.5.5,0,0,0,129.44,347.069Z" transform="translate(-107.031 -332.19)" fill="url(#c)"/></g><g transform="translate(159.178 342.088)"><path d="M159.082,342.142h2.225v10.115h-2.225Z" transform="translate(-159.082 -342.069)" fill="#fff"/><path d="M172.488,342.142h4.624a4.034,4.034,0,0,1,2.948,1.025,3.178,3.178,0,0,1,.867,2.312v.029a3.14,3.14,0,0,1-2.167,3.136l2.471,3.613h-2.6l-2.168-3.237h-1.748v3.237h-2.225Zm4.479,4.912c1.084,0,1.705-.578,1.705-1.43V345.6c0-.954-.665-1.446-1.748-1.446h-2.211v2.9Z" transform="translate(-159.057 -342.069)" fill="#fff"/><path d="M191.8,342.142h1.069l6.373,8.106v-8.106h1.113v10.115h-.911l-6.531-8.294v8.294H191.8Z" transform="translate(-159.022 -342.069)" fill="#fff"/><path d="M229.607,342.142h1.272l3.6,8.713,3.612-8.713h1.228l-4.349,10.187h-1.012Z" transform="translate(-158.952 -342.069)" fill="#fff"/><path d="M250.056,342.142H251.2v10.115h-1.141Z" transform="translate(-158.914 -342.069)" fill="#fff"/><path d="M216.669,342.07H215.6l-4.61,10.187h1.17l3.96-8.858,3.93,8.858h1.228Z" transform="translate(-158.986 -342.07)" fill="#fff"/></g></g></svg>