<svg xmlns="http://www.w3.org/2000/svg" xmlns:xlink="http://www.w3.org/1999/xlink" width="121.074" height="20" viewBox="0 0 121.074 20"><defs><linearGradient id="a" x1="0.5" y1="-0.042" x2="0.5" y2="0.914" gradientUnits="objectBoundingBox"><stop offset="0" stop-color="#005bab"/><stop offset="1" stop-color="#18915a"/></linearGradient><linearGradient id="b" x1="0.5" y1="-0.164" x2="0.5" y2="2.81" xlink:href="#a"/><linearGradient id="c" x1="0.5" y1="-1.021" x2="0.5" y2="0.833" xlink:href="#a"/></defs><g transform="translate(-485.475 -210.503)"><g transform="translate(485.475 210.503)"><path d="M499.443,216.962l1.33-1.33a3.42,3.42,0,0,1,4.553-.327,3.323,3.323,0,0,1,.246,4.917l-1.2,1.2a.331.331,0,0,0,0,.468l2.4,2.4a.331.331,0,0,0,.468,0l1.048-1.048a7.519,7.519,0,0,0,.633-10.055,7.384,7.384,0,0,0-10.909-.528h0l-1.833,1.831-4.056,4.05-6.549,6.545a.331.331,0,0,0,.234.565h4.8a.333.333,0,0,0,.234-.1l1.283-1.281v5.9a.331.331,0,0,0,.331.331h3.394a.331.331,0,0,0,.331-.331v-9.952l3.265-3.26Z" transform="translate(-485.475 -210.503)" fill="url(#a)"/><path d="M501.7,210.9h-3.394a.331.331,0,0,0-.331.331v6.1l4.056-4.05v-2.051A.331.331,0,0,0,501.7,210.9Z" transform="translate(-491.333 -210.689)" fill="url(#b)"/><path d="M511.381,229.081l-2.4,2.4a.331.331,0,0,0,0,.468l7.116,7.115a.33.33,0,0,0,.234.1h4.8a.331.331,0,0,0,.234-.564l-9.515-9.516A.331.331,0,0,0,511.381,229.081Z" transform="translate(-496.442 -219.161)" fill="url(#c)"/></g><g transform="translate(520.987 211.527)"><path d="M555.886,230.353h-3.6V212.88h3.6Z" transform="translate(-552.286 -212.64)" fill="#262924"/><path d="M576.428,223.957H573.56v6.4h-3.6V212.88h6.493a7.343,7.343,0,0,1,4.776,1.38,4.764,4.764,0,0,1,1.68,3.9,5.381,5.381,0,0,1-.774,2.982,5.286,5.286,0,0,1-2.346,1.9l3.78,7.141v.168H579.7Zm-2.868-2.916h2.9a2.976,2.976,0,0,0,2.1-.689,2.47,2.47,0,0,0,.744-1.9,2.643,2.643,0,0,0-.7-1.944,2.919,2.919,0,0,0-2.154-.708H573.56Z" transform="translate(-560.565 -212.64)" fill="#262924"/><path d="M607.849,231.9h-5.856v-1.812h5.856Z" transform="translate(-575.573 -220.7)" fill="#262924"/><path d="M623.8,221.113l.072,1.632a4.731,4.731,0,0,1,3.888-1.872q4.116,0,4.152,4.644v8.58h-2.22v-8.593a2.994,2.994,0,0,0-.642-2.076,2.576,2.576,0,0,0-1.962-.672,3.2,3.2,0,0,0-1.9.576,3.909,3.909,0,0,0-1.272,1.512V234.1H621.7V221.113Z" transform="translate(-584.805 -216.385)" fill="#262924"/><path d="M659.524,234.1a4.641,4.641,0,0,1-.312-1.368,4.951,4.951,0,0,1-3.7,1.608,4.583,4.583,0,0,1-3.15-1.086,3.515,3.515,0,0,1-1.23-2.754,3.674,3.674,0,0,1,1.542-3.15,7.274,7.274,0,0,1,4.339-1.122h2.16v-1.02a2.5,2.5,0,0,0-.7-1.854,2.8,2.8,0,0,0-2.052-.69,3.239,3.239,0,0,0-1.992.6,1.768,1.768,0,0,0-.8,1.452H651.4a3.064,3.064,0,0,1,.69-1.878,4.716,4.716,0,0,1,1.872-1.434,6.307,6.307,0,0,1,2.6-.528,5.135,5.135,0,0,1,3.516,1.122,4.053,4.053,0,0,1,1.32,3.091v5.976a7.3,7.3,0,0,0,.456,2.844v.192Zm-3.684-1.692a3.9,3.9,0,0,0,1.98-.54,3.271,3.271,0,0,0,1.356-1.4V227.8h-1.74q-4.08,0-4.081,2.388a2.019,2.019,0,0,0,.7,1.632A2.672,2.672,0,0,0,655.84,232.406Z" transform="translate(-598.595 -216.385)" fill="#262924"/><path d="M684.426,231.3l3.216-9.972h2.268l-4.657,12.985h-1.692l-4.7-12.985h2.268Z" transform="translate(-611.581 -216.597)" fill="#262924"/><path d="M708.317,213.713a1.325,1.325,0,0,1,.33-.912,1.24,1.24,0,0,1,.978-.372,1.259,1.259,0,0,1,.984.372,1.312,1.312,0,0,1,.336.912,1.314,1.314,0,1,1-2.628,0Zm2.4,16.429H708.5V217.157h2.22Z" transform="translate(-625.383 -212.429)" fill="#262924"/></g></g></svg>